<?xml version="1.0" encoding="UTF-8" standalone="no"?>
<!DOCTYPE svg PUBLIC "-//W3C//DTD SVG 1.1//EN" "http://www.w3.org/Graphics/SVG/1.1/DTD/svg11.dtd">
<svg width="100%" height="100%" viewBox="0 0 2360 2360" version="1.1" xmlns="http://www.w3.org/2000/svg" xmlns:xlink="http://www.w3.org/1999/xlink" xml:space="preserve" xmlns:serif="http://www.serif.com/" style="fill-rule:evenodd;clip-rule:evenodd;stroke-miterlimit:10;">
    <g id="Layer-1" serif:id="Layer 1" transform="matrix(4.16667,0,0,4.16667,-1.52742,-1.52492)">
        <g transform="matrix(0,-1,-1,0,283.464,27.0087)">
            <path d="M-256.455,-256.456C-398.092,-256.456 -512.912,-141.637 -512.912,0C-512.912,141.637 -398.092,256.455 -256.455,256.455C-114.818,256.455 0,141.637 0,0C0,-141.637 -114.818,-256.456 -256.455,-256.456" style="fill:rgb(237,28,36);fill-rule:nonzero;"/>
        </g>
        <g transform="matrix(0,-1,-1,0,283.464,27.0087)">
            <path d="M-256.455,-256.456C-398.092,-256.456 -512.912,-141.637 -512.912,0C-512.912,141.637 -398.092,256.455 -256.455,256.455C-114.818,256.455 0,141.637 0,0C0,-141.637 -114.818,-256.456 -256.455,-256.456Z" style="fill:none;fill-rule:nonzero;stroke:rgb(1,65,108);stroke-width:5.3px;"/>
        </g>
        <g transform="matrix(0,-1,-1,0,283.223,109.484)">
            <path d="M-182.651,-182.649C-283.525,-182.649 -365.299,-100.875 -365.299,-0.001C-365.299,100.875 -283.525,182.651 -182.651,182.651C-81.776,182.651 -0.001,100.875 -0.001,-0.001C-0.001,-100.875 -81.776,-182.649 -182.651,-182.649" style="fill:white;fill-rule:nonzero;"/>
        </g>
        <g transform="matrix(0,-1,-1,0,283.223,109.484)">
            <path d="M-182.651,-182.649C-283.525,-182.649 -365.299,-100.875 -365.299,-0.001C-365.299,100.875 -283.525,182.651 -182.651,182.651C-81.776,182.651 -0.001,100.875 -0.001,-0.001C-0.001,-100.875 -81.776,-182.649 -182.651,-182.649Z" style="fill:none;fill-rule:nonzero;stroke:rgb(1,65,108);stroke-width:5.3px;"/>
        </g>
        <g transform="matrix(-0.0104652,-0.999945,-0.999945,0.0104652,296.787,415.171)">
            <rect x="89.426" y="-88.495" width="22.954" height="202.057" style="fill:rgb(1,65,108);"/>
        </g>
        <g transform="matrix(-0.0104652,-0.999945,-0.999945,0.0104652,296.167,382.958)">
            <rect x="89.427" y="-88.496" width="22.954" height="202.058" style="fill:rgb(1,65,108);"/>
        </g>
        <g transform="matrix(-0.0104647,-0.999945,-0.999945,0.0104647,296.787,448.516)">
            <rect x="89.426" y="-88.495" width="22.954" height="202.057" style="fill:rgb(1,65,108);"/>
        </g>
        <g transform="matrix(-0.0107685,-0.999942,-0.999942,0.0107685,296.817,481.853)">
            <rect x="89.454" y="-88.503" width="22.892" height="202.065" style="fill:rgb(1,65,108);"/>
        </g>
        <g transform="matrix(-0.0108121,-0.999942,-0.999942,0.0108121,296.822,515.199)">
            <rect x="89.459" y="-88.501" width="22.884" height="202.065" style="fill:rgb(1,65,108);"/>
        </g>
        <g transform="matrix(1,0,0,1,370.273,162.925)">
            <path d="M0,77.444C0,86.889 -0.118,96.336 0.061,105.778C0.128,109.342 -1.086,110.753 -4.694,110.66C-11.379,110.489 -18.073,110.482 -24.757,110.658C-28.435,110.755 -29.475,109.195 -29.444,105.712C-29.312,90.601 -29.942,75.463 -29.267,60.382C-28.009,32.33 -46.65,13.153 -69.848,6.354C-93.5,-0.579 -120.365,7.424 -135.281,26.159C-142.127,34.758 -145.615,44.621 -145.688,55.585C-145.797,72.004 -145.846,88.426 -145.629,104.843C-145.573,109.13 -146.708,110.911 -151.228,110.694C-157.61,110.387 -164.02,110.533 -170.415,110.643C-173.604,110.698 -175.185,109.763 -175.158,106.193C-175.018,87.449 -175.823,68.665 -174.854,49.969C-173.541,24.637 -160.952,4.991 -140.357,-9.251C-105.341,-33.467 -59.022,-31.087 -26.748,-3.107C-9.772,11.61 -0.29,30.547 -0.031,53.468C0.059,61.459 -0.018,69.452 -0.018,77.444L0,77.444Z" style="fill:rgb(1,65,108);fill-rule:nonzero;"/>
        </g>
        <g transform="matrix(1,0,0,1,171.608,100.341)">
            <path d="M0,-2.27C0.443,-2.479 0.97,-2.74 1.764,-3.219C4.688,-4.98 5.621,-7.592 4.161,-10.016C2.903,-12.105 0.668,-12.696 -2.215,-10.96C-3.303,-10.305 -4.005,-9.767 -4.33,-9.457L0,-2.27ZM-14.958,-10.175C-13.111,-11.743 -10.32,-13.823 -6.058,-16.391C-2.004,-18.832 1.374,-19.843 4.245,-19.52C7.022,-19.259 9.805,-17.574 11.541,-14.69C13.253,-11.849 13.777,-8.804 12.961,-6.091C11.913,-2.727 9.166,0.181 5.363,2.473C4.61,2.926 3.935,3.22 3.474,3.497L9.239,13.067L1.759,17.573L-14.958,-10.175Z" style="fill:white;fill-rule:nonzero;"/>
        </g>
        <g transform="matrix(1,0,0,1,208.913,73.4786)">
            <path d="M0,18.615C3.946,17.054 4.752,12.328 2.562,6.794C0.479,1.533 -3.459,-1.524 -7.45,0.055C-11.396,1.616 -12.221,6.559 -10.12,11.865C-7.993,17.372 -4.037,20.212 -0.091,18.651L0,18.615ZM2.158,25.262C-7.322,29.014 -15.355,23.958 -18.712,15.475C-22.231,6.586 -19.226,-2.788 -9.836,-6.504C0.006,-10.399 7.886,-5.07 11.117,3.094C15.013,12.936 11.593,21.53 2.204,25.245L2.158,25.262Z" style="fill:white;fill-rule:nonzero;"/>
        </g>
        <g transform="matrix(1,0,0,1,234.212,75.8814)">
            <path d="M0,-4.445L2.243,-4.922C5.488,-5.612 7.014,-7.583 6.506,-9.969C5.998,-12.355 4.13,-13.403 1.267,-12.794C-0.356,-12.449 -1.194,-12.171 -1.604,-11.985L0,-4.445ZM-11.395,-16.037C-9.041,-16.936 -5.439,-18.052 -1.144,-18.966C3.771,-20.01 7.444,-20.094 10.273,-18.751C12.661,-17.612 14.246,-15.556 14.906,-12.454C15.758,-8.445 13.352,-4.99 11.073,-3.509L11.104,-3.364C13.405,-2.857 15.035,-1.059 16.436,1.536C18.091,4.625 20.135,9.077 21.02,10.187L12.239,12.055C11.56,11.201 10.172,8.904 8.413,5.088C6.742,1.453 5.377,0.896 2.705,1.464L1.32,1.759L3.889,13.831L-4.652,15.649L-11.395,-16.037Z" style="fill:white;fill-rule:nonzero;"/>
        </g>
        <g transform="matrix(1,0,0,1,262.652,77.0051)">
            <path d="M0,-16.887L-8.375,-16.345L-8.855,-23.744L16.853,-25.414L17.333,-18.013L8.813,-17.46L10.462,7.956L1.649,8.527L0,-16.887Z" style="fill:white;fill-rule:nonzero;"/>
        </g>
        <g transform="matrix(1,0,0,1,309.058,54.482)">
            <path d="M0,32.366L-4.478,-1.841L5.029,-0.138L6.208,13.208C6.562,17.038 6.79,20.746 6.866,25.022L6.962,25.039C8.437,21.239 10.019,17.658 11.607,14.324L17.419,2.082L26.639,3.734L10.275,34.207L0,32.366Z" style="fill:white;fill-rule:nonzero;"/>
        </g>
        <g transform="matrix(-0.294291,0.955716,0.955716,0.294291,352.421,90.3521)">
            <rect x="-25.496" y="-18.826" width="32.88" height="8.829" style="fill:white;"/>
        </g>
        <g transform="matrix(1,0,0,1,358.532,104.387)">
            <path d="M0,-38.662L8.128,-35.207L-1.856,-11.725L9.772,-6.78L6.89,0L-12.866,-8.399L0,-38.662Z" style="fill:white;fill-rule:nonzero;"/>
        </g>
        <g transform="matrix(1,0,0,1,389.457,100.367)">
            <path d="M0,1.812L1.808,-4.006C2.365,-5.84 3.233,-8.457 3.841,-10.375L3.758,-10.425C2.319,-9.02 0.497,-6.991 -0.891,-5.669L-5.191,-1.386L0,1.812ZM-9.592,3.524L-15.16,9.031L-22.928,4.247L2.457,-18.732L12.426,-12.592L3.529,20.544L-4.569,15.556L-2.364,7.975L-9.592,3.524Z" style="fill:white;fill-rule:nonzero;"/>
        </g>
        <g transform="matrix(1,0,0,1,149.876,479.645)">
            <path d="M0,-39.646L6.972,-34.014L-9.301,-13.874L0.674,-5.816L-4.025,0L-20.969,-13.691L0,-39.646Z" style="fill:white;fill-rule:nonzero;"/>
        </g>
        <g transform="matrix(1,0,0,1,167.79,468.267)">
            <path d="M0,17.623C3.706,19.816 7.998,17.522 11.073,12.324C13.998,7.38 14.002,2.321 10.252,0.102C6.544,-2.092 2.067,0.321 -0.883,5.308C-3.976,10.437 -3.793,15.379 -0.085,17.572L0,17.623ZM-3.989,23.488C-12.895,18.221 -13.837,8.63 -9.123,0.663C-4.181,-7.69 5.207,-11.11 14.026,-5.891C23.273,-0.42 23.901,9.213 19.364,16.883C13.892,26.132 4.874,28.733 -3.946,23.515L-3.989,23.488Z" style="fill:white;fill-rule:nonzero;"/>
        </g>
        <g transform="matrix(1,0,0,1,211.045,474.968)">
            <path d="M0,37.005C-1.388,37.157 -4.611,36.701 -8.302,35.266C-19.933,30.743 -22.236,21.506 -19.025,13.245C-14.771,2.309 -4.57,-0.152 4.706,3.452C8.259,4.836 10.896,6.659 11.938,7.807L7.757,13.776C6.634,12.704 4.911,11.396 2.419,10.428C-2.335,8.579 -7.583,9.779 -10.041,16.101C-12.231,21.731 -10.227,26.549 -4.503,28.773C-2.519,29.546 -0.114,30.055 1.375,30.05L0,37.005Z" style="fill:white;fill-rule:nonzero;"/>
        </g>
        <g transform="matrix(1,0,0,1,227.103,521.812)">
            <path d="M0,-38.819L8.653,-36.908L5.6,-23.081L5.697,-23.059C6.641,-24.119 7.633,-25.167 8.565,-26.178L17.113,-35.039L27.846,-32.669L14.437,-21.079L21.037,0L10.933,-2.23L6.983,-16.945L3.635,-14.186L1.458,-4.323L-7.196,-6.234L0,-38.819Z" style="fill:white;fill-rule:nonzero;"/>
        </g>
        <g transform="matrix(1,0,0,1,256.987,499.628)">
            <path d="M0,14.048C1.955,15.222 5.144,16.484 8.503,16.714C11.565,16.923 13.119,15.986 13.232,14.308C13.345,12.677 11.923,11.688 8.257,10.146C2.766,7.736 -0.78,4.416 -0.442,-0.522C-0.041,-6.401 5.259,-10.604 13.656,-10.03C17.607,-9.761 20.421,-8.823 22.531,-7.737L20.164,-0.703C18.775,-1.442 16.37,-2.55 13.06,-2.776C10.345,-2.962 8.795,-2.075 8.693,-0.592C8.579,1.087 10.313,1.85 14.404,3.718C20.229,6.349 22.679,9.692 22.362,14.335C21.971,20.065 17.191,24.652 7.46,23.986C3.459,23.713 -0.372,22.409 -2.182,21.293L0,14.048Z" style="fill:white;fill-rule:nonzero;"/>
        </g>
        <g transform="matrix(1,0,0,1,315.844,502.432)">
            <path d="M0,7.003C-0.558,3.276 -1.092,-1.147 -1.657,-6.315L-1.806,-6.3C-2.359,-1.806 -3.193,3.318 -3.878,7.079L-5.909,19.007L-12.85,19.767L-16.872,8.501C-18.147,5.055 -19.669,0.239 -20.953,-4.202L-21.052,-4.191C-20.736,0.506 -20.346,5.443 -20.084,9.2L-19.32,21.173L-27.491,22.067L-29.057,-11.336L-17.095,-12.645L-13.948,-3.925C-12.614,-0.384 -11.146,3.939 -10.014,7.9L-9.866,7.884C-9.373,3.745 -8.803,-1.049 -8.201,-4.652L-6.659,-13.787L5.006,-15.064L10.312,17.928L1.698,18.87L0,7.003Z" style="fill:white;fill-rule:nonzero;"/>
        </g>
        <g transform="matrix(0.250354,0.968154,0.968154,-0.250354,352.654,496.092)">
            <rect x="-16.847" y="-21.757" width="33.372" height="8.961" style="fill:white;"/>
        </g>
        <g transform="matrix(1,0,0,1,350.458,497.268)">
            <path d="M0,-10.948L-7.972,-7.954L-10.619,-14.999L13.854,-24.192L16.5,-17.146L8.39,-14.1L17.477,10.093L9.087,13.244L0,-10.948Z" style="fill:white;fill-rule:nonzero;"/>
        </g>
        <g transform="matrix(1,0,0,1,375.529,490.847)">
            <path d="M0,-23.672L6.108,-12.907L15.539,-18.258L9.43,-29.024L17.224,-33.444L33.691,-4.423L25.898,-0.001L19.398,-11.455L9.969,-6.105L16.469,5.35L8.675,9.772L-7.794,-19.249L0,-23.672Z" style="fill:white;fill-rule:nonzero;"/>
        </g>
        <g transform="matrix(1,0,0,1,413.088,448.216)">
            <path d="M0,24.465C2.235,24.013 5.437,22.786 8.068,20.686C10.469,18.772 10.98,17.033 9.93,15.716C8.911,14.44 7.193,14.67 3.451,16.01C-2.227,17.944 -7.083,17.893 -10.17,14.025C-13.847,9.419 -12.779,2.739 -6.201,-2.511C-3.104,-4.982 -0.397,-6.192 1.892,-6.816L4.899,-0.031C3.375,0.361 0.854,1.17 -1.737,3.239C-3.867,4.938 -4.409,6.638 -3.483,7.8C-2.434,9.114 -0.639,8.506 3.639,7.119C9.71,5.123 13.776,5.934 16.68,9.57C20.263,14.058 19.837,20.668 12.215,26.754C9.079,29.254 5.374,30.882 3.286,31.281L0,24.465Z" style="fill:white;fill-rule:nonzero;"/>
        </g>
        <g transform="matrix(1,0,0,1,248.83,299.481)">
            <path d="M0,94.513L19.38,52.47C14.502,46.943 11.452,39.041 11.452,30.26C11.452,13.543 22.514,0 36.167,0C49.811,0 60.881,13.543 60.881,30.26C60.881,39.224 57.691,47.285 52.637,52.824L72.324,93.634L0,94.513Z" style="fill:white;fill-rule:nonzero;"/>
        </g>
    </g>
</svg>
